<svg width="512" height="416" viewBox="0 0 512 416" fill="none" xmlns="http://www.w3.org/2000/svg">
<path fill-rule="evenodd" clip-rule="evenodd" d="M400.705 9.74831C414.188 -3.14703 435.443 -3.20559 448.995 9.31663L450.279 10.5608L454.662 15.1566C499.057 62.9087 515.601 118.557 511.358 172.904C507.052 228.017 481.619 279.99 446.137 321.062C410.676 362.105 363.334 394.43 312.16 408.459C260.342 422.662 203.67 418.134 154.475 383.406C112.75 353.948 96.8648 306.344 95.7856 260.097C72.3716 248.614 47.7353 234.341 21.8862 216.984L15.0559 212.345L13.6009 211.296C-1.07443 200.085 -4.42995 179.334 6.26572 164.102C16.9646 148.869 37.7972 144.736 53.5463 154.419L55.0613 155.401L61.2837 159.633C76.7687 170.03 91.5443 179.045 105.594 186.827C114.657 155.022 129.675 124.483 149.461 99.3119C179.101 61.6015 223.54 31.444 277.984 35.9435C327.024 39.9992 363.257 65.2959 381.959 100.995C400.07 135.565 400.337 177.15 384.51 212.912C368.374 249.371 335.616 279.744 288.494 292.259C254.582 301.265 214.854 300.648 170.027 288.587V288.603C152.184 283.8 133.483 277.168 113.939 268.553C109.555 266.62 105.74 269.572 113.939 274.697C137.017 291.078 169.529 304.808 178.937 309.416C183.384 316.608 188.897 322.508 195.217 326.969C224.3 347.5 258.321 351.262 293.433 341.636C329.188 331.835 365.025 308.2 392.822 276.025C420.596 243.876 438.503 205.357 441.454 167.563C444.239 131.902 433.948 95.2687 402.947 61.9775L399.883 58.7695L398.659 57.4495C386.46 43.6396 387.228 22.6425 400.705 9.74831ZM272.147 105.041C249.652 103.182 225.913 115.024 204.821 141.859C188.757 162.297 176.601 188.853 170.405 216.179C214.548 231.27 247.448 231.373 270.307 225.302C296.769 218.275 312.638 202.363 320.275 185.109C328.219 167.155 327.404 147.592 319.7 132.888C312.59 119.313 298.275 107.203 272.147 105.041Z" fill="#4DAA57"/>
</svg>
