<svg width="512" height="512" viewBox="0 0 512 512" fill="none" xmlns="http://www.w3.org/2000/svg">
<rect width="512" height="512" rx="128" fill="#4DAA57"/>
<path fill-rule="evenodd" clip-rule="evenodd" d="M355.355 116.854C365.125 107.787 380.526 107.746 390.346 116.551L391.277 117.426L394.452 120.657C426.621 154.233 438.609 193.36 435.535 231.573C432.415 270.325 413.985 306.868 388.275 335.747C362.58 364.605 328.275 387.334 291.194 397.198C253.646 407.184 212.581 404 176.934 379.582C146.7 358.87 135.189 325.398 134.407 292.881C117.441 284.807 99.5894 274.771 80.8589 262.567L75.9097 259.305L74.8553 258.567C64.2215 250.684 61.79 236.094 69.5402 225.384C77.2927 214.673 92.3882 211.767 103.8 218.576L104.898 219.267L109.407 222.242C120.627 229.552 131.334 235.891 141.515 241.363C148.082 219 158.964 197.527 173.301 179.829C194.778 153.314 226.98 132.109 266.43 135.273C301.964 138.124 328.219 155.911 341.771 181.012C354.894 205.319 355.088 234.559 343.619 259.704C331.927 285.339 308.19 306.695 274.045 315.494C249.473 321.827 220.685 321.393 188.203 312.913V312.924C175.274 309.547 161.723 304.883 147.561 298.827C144.385 297.468 141.62 299.543 147.561 303.147C164.284 314.664 187.843 324.318 194.66 327.558C197.882 332.615 201.877 336.764 206.456 339.9C227.53 354.336 252.182 356.981 277.624 350.213C303.533 343.321 329.501 326.703 349.642 304.08C369.768 281.476 382.744 254.391 384.882 227.818C386.9 202.744 379.443 176.986 356.979 153.578L354.759 151.322L353.872 150.394C345.033 140.684 345.589 125.921 355.355 116.854ZM262.2 183.857C245.9 182.55 228.699 190.876 213.415 209.745C201.775 224.115 192.967 242.787 188.477 262.001C220.464 272.612 244.303 272.684 260.867 268.416C280.042 263.475 291.54 252.286 297.074 240.154C302.83 227.531 302.24 213.775 296.658 203.437C291.506 193.892 281.133 185.377 262.2 183.857Z" fill="white"/>
</svg>
